<?xml version="1.0" encoding="UTF-8"?>
<svg xmlns="http://www.w3.org/2000/svg" version="1.1" viewBox="0 0 1226.1 450">
  <defs>
    <style>
      .cls-1 {
        fill: #0c0c0c;
      }

      .cls-2 {
        fill: #c1272d;
      }
    </style>
  </defs>
  <!-- Generator: Adobe Illustrator 28.6.0, SVG Export Plug-In . SVG Version: 1.2.0 Build 709)  -->
  <g>
    <g id="Layer_1">
      <g>
        <path class="cls-1" d="M218.4,188.9l.2.2h.3c6.1,3,12.5,4.4,18.9,4.4,23.9,0,44.8-19.9,54.8-39.5,6.9-11.4,7.5-27.2-5.1-35.5-4.8-2.4-10.1-3.6-15.8-3.6-12.3,0-26.2,5.6-41.4,16.7-10.8,7.9-22.3,23.9-22.3,38,0,7.9,3.6,14.5,10.3,19.3ZM276.4,138c-2.1,9.9-21.7,29.8-32.1,32.3-4.2,1.4-7.7,2.2-10.3,2.2h0c-3.7,0-4.1-1.4-4.2-1.8-1.3-4.4,5.4-15.7,14.6-21.9,7.2-5.6,18-13.2,28-13.2s2.7.1,4,.4c.2.5.1,1.5,0,2Z"/>
        <path class="cls-1" d="M369.6,309.1c-2.5,0-4.9.9-7.1,2.5-9.5,7.5-20.6,14.8-33,21.5-13,6.9-24.7,11.5-35.9,14-5.2,1.1-8.6,6.2-7.6,11.7,1,4.6,5.2,7.9,9.9,7.9s1.2,0,1.9-.2c25.4-5.3,50.3-17,78.6-37,4.1-3,5.6-7.6,4.2-12.2-1.6-4.8-6.1-8.2-11-8.2Z"/>
        <path class="cls-1" d="M544.7,191.7c.9.2,1.8.3,2.6.3,4.7,0,8.7-3.6,9.5-8.5.8-4.7-1.7-9-6.1-10.5-11.7-4.5-18.8-9.2-18.2-18.3.8-10.8,5.5-16.5,17.3-21.1,4.3-1.7,6.6-6,5.7-10.6-.9-4.7-4.7-8.1-9.3-8.1s-1.1,0-1.7.1c-4.7.7-16.5,3.3-24.4,12.9-9.5,12.4-12.2,26.7-7.3,39.4,4.9,12.8,16.6,21.7,31.8,24.4Z"/>
        <path class="cls-1" d="M485.2,191.1c.8.2,1.6.3,2.4.3,4.7,0,8.6-3.5,9.5-8.4.8-4.8-1.7-9-6.2-10.6-5.2-1.9-11.7-4.5-14.8-7.8-2.5-2.9-3.3-6.4-2.7-11.5,1.1-11,8.7-14.8,21.2-20.3,3.6-1.7,5.7-5.3,5.5-9.2v-.3s0-.3,0-.3c-1.1-5.2-5.2-8.2-11-8.2-8.3,0-19.4,5.9-24.4,10-12.1,10.7-16.6,25.6-12.3,39.8,4.4,14.1,17,24.2,32.9,26.4Z"/>
        <path class="cls-1" d="M624.5,188.9l.2.2h.3c6.1,3,12.5,4.4,18.9,4.4,23.9,0,44.8-19.9,54.8-39.5,6.9-11.4,7.5-27.2-5.1-35.5-4.8-2.4-10.1-3.6-15.8-3.6-12.3,0-26.2,5.6-41.4,16.7-10.8,7.9-22.3,23.9-22.3,38,0,7.9,3.6,14.5,10.3,19.3ZM682.4,138c-2.1,9.9-21.7,29.8-32.1,32.3-4.2,1.4-7.7,2.2-10.3,2.2h0c-3.7,0-4.1-1.4-4.2-1.8-1.3-4.4,5.4-15.7,14.6-21.9,7.2-5.6,18-13.2,28-13.2s2.7.1,4,.4c.2.5.1,1.5,0,2Z"/>
        <g>
          <path class="cls-1" d="M168.5,208.8c-.6,0-1.3,0-1.9.2-16,2.7-42.2,13.5-38.5,37.2,3.3,22.6,2.1,26.8-3.4,28.7-3,1-5.2,1.5-7,1.5-3.7,0-7.6-1.8-14.6-10.3-2.1-2.7-5.4-4.2-8.9-4.2s-5.1.9-7,2.4c-2.4,1.8-4,4.6-4.3,7.6-.3,3,.5,6,2.5,8.3,10.5,13,20.5,18.8,32.3,18.8s9.2-.9,14.8-2.8c25.2-8.7,21.3-34.6,18.3-53.4-.7-5.1,12.5-10.3,19.8-11.6,3.1-.5,5.7-2.2,7.5-4.7,1.7-2.4,2.4-5.4,1.8-8.3-1-5.3-5.8-9.4-11.2-9.4Z"/>
          <path class="cls-1" d="M309.2,262.1l25.5-34.9c1.8-2.5,2.6-5.5,2.1-8.6-.5-3.1-2.2-5.8-4.8-7.7-2-1.4-4.3-2.1-6.8-2.1-3.8,0-7.4,1.8-9.6,4.8l-15.3,21.1c-3.1-4.6-6.6-9.8-10.4-14.6-2.2-2.8-5.4-4.6-9.2-4.8-3.9.2-7,1.6-9.1,3.9-6,6.7-11.5,13.3-16.9,19.7-2.8,3.5-6.3,7.8-10.1,12.2-4.1-9.5-8.9-16.3-14.3-20.2-2.8-2-6.3-3.1-10-3.1s-3.4.2-5.2.6c-13.5,3.2-34.5,20.3-51.3,51.5-1.5,2.7-1.8,5.9-.9,8.8.9,3,3,5.4,5.9,7,1.7.8,3.5,1.2,5.5,1.2,4.3,0,8.2-2.3,10.3-6.1,13.7-25.6,28.1-36.2,33.8-39,3.4,4.7,7.4,14.3,10,24.2.9,4.2,4.1,7.4,8.1,8.5,1.1.3,2.2.5,3.4.5,3.1,0,6.1-1.3,8.1-3.3,8.6-8.2,16-17.1,23.1-25.7l2.1-2.5c2-2.5,4.1-5.1,6.2-7.6,4.4,6.4,7.9,11.9,9.4,14.3.4.7.7,1,.8,1.3,2,3.3,5.6,5.4,9.7,5.6,4,0,7.8-1.9,9.8-4.9Z"/>
          <path class="cls-1" d="M449.9,228.3h0c2.3-1.9,3.6-4.7,3.8-7.8.1-3-1-6-3.2-8.2-2.2-2.3-5.1-3.5-8.3-3.5s-5.6,1.1-7.8,3c-.2.2-24.7,22.8-55.6,52.3-4.7,4.5-7.6,6-8.9,6.5-1.7-2.8-4.4-13.3-2.1-36.8.4-3-.5-5.9-2.4-8.3-1.9-2.4-4.7-3.8-7.6-4.1-.4,0-.9,0-1.3,0-5.8,0-10.7,4.4-11.3,10.2-3.4,33.3,1.6,53.5,15.1,60,2.9,1.3,6,2,8.9,2,7.8,0,16.2-4.3,25.5-13.1,21-20,38.7-36.6,48.2-45.5,3.8-3.6,5.9-5.5,6.9-6.6Z"/>
          <path class="cls-1" d="M573.7,209.3c-1.8,0-3.5.4-5.2,1.2l-.6.3c-6.9,3.9-23.8,14.6-40.6,34.3-2.6-16.2-6-28.7-14.9-33.9-2.6-1.5-5.6-2.3-8.6-2.3s-4.4.4-6.5,1.2c-23.6,8.6-69.6,66-74.8,72.5-1.9,2.4-2.7,5.3-2.4,8.3.4,3,1.9,5.7,4.3,7.5,1.9,1.5,4.4,2.4,7,2.4s6.9-1.6,9-4.3c16.2-20.3,45.9-53.9,60.9-63.3,2,6,3.8,18.2,4.9,25.2l.2,1.2c.8,5.8,1.6,11.7,2.7,17,.9,4.7,4.7,8.3,9.4,9,.6,0,1.2.1,1.8.1,4.1,0,7.9-2.1,9.8-5.6,20.4-34.4,48.6-49.5,48.8-49.6,2.8-1.4,4.8-3.8,5.7-6.8.9-2.9.6-5.9-.8-8.5-2.1-3.7-6-6-10.2-6Z"/>
          <path class="cls-1" d="M710.7,220.2c-1.9-4.7-5.7-8.2-11-10.1-2.4-.8-5.3-1.3-8.5-1.3-14.1,0-32.9,8.3-41.9,12.7-1.2-.7-2.5-1.4-3.9-1.9-3.1-1.2-6.6-1.8-10.5-1.8-10.8,0-22.8,4.6-32.1,12.3-12.2,10-17.2,24.8-12.4,36.9,2.3,5.5,10.3,18.4,34.3,18.4h3.4c29.2-1.3,67.2-25.1,79.2-43.9,6.6-10.3,4.9-17.9,3.3-21.3ZM620.7,251.6c-2.5,1.9-4.1,4.6-4.5,7.6-.1.8-.1,1.7,0,2.5-2.7-.8-4.1-2-4.5-3.1-1-2.4.8-7.3,5.7-11.2,5.7-4.7,11.6-6.5,15.4-7.2-1.9,2.5-5.5,6.3-12.1,11.4ZM647.8,257.8c4.9-5.2,7.9-10.1,9.3-14.9,11.6-5.9,23.4-10.1,30.1-11.7-5.6,6.9-21.7,19.6-39.3,26.7Z"/>
        </g>
        <g>
          <path class="cls-2" d="M934.7,216.8c.4,2.8.7,3.5.6,4.1-4.1,19.4-7.9,38.9-12.5,58.2-2.4,9.8-1.2,11.9,9.1,10.3,12.2-1.9,24.4-4.5,36.7-5.8,9.5-1,15-5.3,19.6-13.6,12.4-22.8,24.9-45.6,38.9-67.5,23.2-36.1,49.6-69.6,85.8-94,.8-.5,1.3-1.6,1.9-2.3-.4-.5-.7-1-1.1-1.5-9.9,5.1-19.8,10.2-29.7,15.3-.3-.4-.7-.7-1-1.1,10.9-11.3,21.9-22.5,33.8-34.9-52.7,16.1-92.7,47.6-125.3,89.8.8-10.6,2.8-20.6,3.5-30.7,1.2-16.3-2.1-19-18.1-16.9-1.7.2-3.4.1-5.1.6-10.8,3-23.2,2.4-31.6,11.5-27.7,30.2-33.9,36.5-58.3,69.8-29.5,40.3-65.3,107.5-67.1,130.7-.2,2.8-.5,5.6-.8,8.4.5,0,1.1.1,1.6.2,3.5-7.4,7-14.8,10.4-22.2.3,0,.6.2.9.3-.6,4.2-1.2,8.4-1.8,12.6.5.1,1,.3,1.5.4,2.2-3.1,4.4-6.3,6.6-9.4.2.1.4.3.6.4-3.7,12.1-7.5,24.3-11.2,36.4,35.2-63,59.6-97.4,112.1-149.2Z"/>
          <path class="cls-2" d="M1121.3,110.5c0,0,0-.1,0-.2-.4,0,0,.1,0,.2Z"/>
          <path class="cls-2" d="M1140.9,146.4c-.3-4.3-5.7-8.1-9-14.3,1,6,2.1,20.6,2.9,25.6,0,0,0,0-.1,0-2.6-9.1-11-38.6-13.5-47.2,0,0,0,0-.2,0,.7,6.5,3.4,33.7,2.6,41.5h0c-1.4-6.6-2.7-13.3-4.2-20.3,0,1.4-.2,2.7-.3,3.9,1.7,35.2-5.1,106.7-78.6,157.8-60,41.7-114.4,33.8-151.4,18-6-.6-11.3.6-16.7,4.1-7.9,5.1-11.1,12.5-9.7,19.4l-.4.2s.2.1.5.3c1.1,4.7,4.4,9.1,9.9,12.4,18.3,11,38.2,17.2,59.3,18,51.7,1.9,95.3-12.9,132.2-41.1,0,0,.2-.1.2-.2,95.6-66.4,78.4-167.3,76.2-178.1ZM1134.8,158.2c0,0,0-.2,0-.3.2,0,.5.2,0,.3ZM1123.7,152.2s0,0,0-.1c.2,0,.4,0,0,.1Z"/>
          <path class="cls-2" d="M802.9,273.2c8.4-16.8,18-32.7,20.6-51.6,1.6-11.9,2-24.1,5.1-35.7,6.8-25.4,23.6-43.6,45-55.4,0,0,0,0,0,0,23.3-16.9,53.1-15.9,71.9-12.8.3-1.9,0-4.4-1-5.3-4-4.1-8.8-7.3-13.5-10.6-1.1-.8-2.3-1.5-3.5-2.2l-4.8-3.7h3.2c2.2.6,4.4,1.2,6.6,1.8,1,.3,9.2,4.2,10.2,4.5.3-.8-6.5-5.2-6.1-6-22.8-18.6-92.2-28.1-135.1,51.3-9.6,17.8-14.4,34.6-16,49.7,0,.3,0,.5,0,.8-.3,3-.6,6-.6,8.9h0c-.5,16.8,2.6,31.1,6.3,42.1,4.8,14.2,10.8,22.9,11.7,24.2,0,.1.1.2.1.2Z"/>
        </g>
        <g>
          <path class="cls-2" d="M121.9,146.8h-7.4v-13.4c0-2.6,0-3.7.3-9.2v-3.1c.1,0,0,0,0,0l-.9,3c-1.7,5.2-2.1,6.6-2.9,8.8l-5.2,13.9h-6.6l-5.2-13.8c-.9-2.4-1.3-3.5-3-8.8l-.9-2.9h-.2v3c.5,5.4.5,6.9.5,9.1v13.4h-7.4v-31.9h11.9l4.4,11.9c.7,2.1,1.2,3.6,3.1,9.9h.3l.7-2.5c1.3-4.3,1.6-5.5,2.3-7.4l4.3-11.9h12.1v31.9Z"/>
          <path class="cls-2" d="M155.8,114.9l-10,31.9h-11.5l-9.8-31.9h7.6l4.8,15.1c1,3.3,1.4,4.4,3,10.5h.2c1.7-6.2,1.8-6.7,3-10.5l4.8-15.1h7.8Z"/>
        </g>
      </g>
    </g>
  </g>
</svg>